PathFileType	4	(X/Y/Z)	/home/utkubuntu/opensim/opensim_mycode/release_code/bioimitation/imitation_envs/data/02905/02905_PRE/experimental_data/static.trc
DataRate	CameraRate	NumFrames	NumMarkers	Units	OrigDataRate	OrigDataStartFrame	OrigNumFrames
100.000000	100.000000	4	53	mm	100.000000	250	1000
Frame#	Time	C7			CLAV			LANK			LASI			LBHD			LELB			LFHD			LFIN			LFMH			LHEE			LKNE			LKNI			LMED			LMET			LMIF			LPSI			LSHO			LTAD			LTHAP			LTHI			LTIAD			LTIB			LTOE			LTTU			LWRA			LWRB			RANK			RASI			RBAK			RBHD			RELB			RFHD			RFIN			RFMH			RHEE			RKNE			RKNI			RMED			RMET			RMIF			RPSI			RSHO			RTAD			RTHAP			RTHI			RTIAD			RTIB			RTOE			RTTU			RWRA			RWRB			STRN			T10			
		X1	Y1	Z1	X2	Y2	Z2	X3	Y3	Z3	X4	Y4	Z4	X5	Y5	Z5	X6	Y6	Z6	X7	Y7	Z7	X8	Y8	Z8	X9	Y9	Z9	X10	Y10	Z10	X11	Y11	Z11	X12	Y12	Z12	X13	Y13	Z13	X14	Y14	Z14	X15	Y15	Z15	X16	Y16	Z16	X17	Y17	Z17	X18	Y18	Z18	X19	Y19	Z19	X20	Y20	Z20	X21	Y21	Z21	X22	Y22	Z22	X23	Y23	Z23	X24	Y24	Z24	X25	Y25	Z25	X26	Y26	Z26	X27	Y27	Z27	X28	Y28	Z28	X29	Y29	Z29	X30	Y30	Z30	X31	Y31	Z31	X32	Y32	Z32	X33	Y33	Z33	X34	Y34	Z34	X35	Y35	Z35	X36	Y36	Z36	X37	Y37	Z37	X38	Y38	Z38	X39	Y39	Z39	X40	Y40	Z40	X41	Y41	Z41	X42	Y42	Z42	X43	Y43	Z43	X44	Y44	Z44	X45	Y45	Z45	X46	Y46	Z46	X47	Y47	Z47	X48	Y48	Z48	X49	Y49	Z49	X50	Y50	Z50	X51	Y51	Z51	X52	Y52	Z52	X53	Y53	Z53	

251	2.5	775.2680053710938	1443.921020507812	-281.5849914550778	878.6729736328125	1349.0400390625	-262.6239929199216	723.7570190429688	78.06500244140634	-362.25	898.35302734375	944.8959960937501	-359.1140136718748	804.1619873046875	1535.858032226562	-353.4819946289059	726.5440063476562	1099.587036132813	-554.888977050781	924.72900390625	1636.573974609375	-320.4779968261715	809.8629760742188	854.5570068359376	-681.3090209960935	862.8619995117188	36.31600189208991	-290.4289855957031	672.1729736328125	39.39699935913093	-333.8359985351562	781.635986328125	469.5669860839844	-382.6749877929686	777.7059936523438	458.1979980468751	-266.6770019531249	729.5540161132812	88.28700256347662	-282.0260009765625	833.7379760742188	27.47800064086923	-384.1789855957031	803.85302734375	73.72200012207038	-329.2909851074219	731.9359741210938	959.8579711914064	-302.4389953613279	810.9609985351562	1383.692016601562	-434.9890136718747	857.2739868164062	527.8439941406251	-314.3840026855468	903.906982421875	692.7789916992189	-318.542999267578	807.2579956054688	565.8859863281251	-429.4760131835936	776.8200073242188	208.2500000000001	-322.7609863281249	743.1069946289062	299.467987060547	-434.5799865722656	858.9320068359375	40.73699951171882	-335.9429931640625	811.1900024414062	384.1119995117188	-324.3120117187499	836.5440063476562	890.3779907226564	-634.4840087890623	771.7030029296875	891.0219726562501	-661.3389892578123	713.0460205078125	74.97499847412112	-101.4869995117187	876.4199829101562	957.8930053710938	-113.9680023193357	696.9619750976562	1341.751953125	-158.3079986572263	790.1400146484375	1523.557006835938	-194.0189971923825	677.1060180664062	1106.962036132812	-13.49100017547583	907.8079833984375	1622.116943359375	-196.6529998779293	736.2589721679688	860.6929931640625	164.7019958496096	854.468017578125	36.13499832153324	-159.3200073242188	653.6069946289062	35.12300109863284	-131.2579956054688	795.2880249023438	475.2279968261719	-93.35299682617178	792.7100219726562	464.3779907226563	-212.9299926757811	715.5819702148438	85.00800323486332	-184.6390075683593	813.9390258789062	26.69599914550783	-65.97100067138672	802.1400146484375	67.37599945068362	-130.3350067138672	723.1019897460938	966.281005859375	-200.6190032958982	777.4520263671875	1394.286987304688	-98.77799987792937	872.0869750976562	553.8090209960938	-139.386993408203	906.5029907226562	720.0189819335938	-120.0979995727537	804.9320068359375	588.9829711914062	-40.36399841308581	787.0599975585938	256.6539916992188	-143.2380065917968	737.4140014648438	297.875	-34.91400146484369	846.843017578125	39.46300125122073	-113.9729995727539	827.114013671875	395.0440063476563	-144.4530029296874	767.8309936523438	901.198974609375	113.9929962158205	697.0999755859375	896.905029296875	125.6380004882814	896.3200073242188	1189.7080078125	-252.8650054931638	690.510986328125	1148.64697265625	-270.1749877929685	
252	2.51	775.2579956054688	1443.933959960938	-281.6329956054684	878.6710205078125	1349.057006835938	-262.6669921874997	723.7570190429688	78.06099700927743	-362.2510070800781	898.3400268554688	944.9019775390626	-359.1640014648435	804.198974609375	1535.876953125	-353.5230102539059	726.5490112304688	1099.578979492188	-554.9069824218748	924.7579956054688	1636.5849609375	-320.4869995117184	809.89599609375	854.5120239257814	-681.2290039062498	862.8610229492188	36.31999969482428	-290.4309997558594	672.1729736328125	39.39799880981452	-333.8349914550781	781.6290283203125	469.5669860839844	-382.7059936523436	777.7000122070312	458.2009887695313	-266.7000122070311	729.5549926757812	88.29199981689459	-282.0299987792969	833.7360229492188	27.47800064086923	-384.1730041503906	803.8610229492188	73.72899627685554	-329.2969970703125	731.9569702148438	959.8389892578126	-302.4639892578123	810.9660034179688	1383.698974609375	-435.0289916992185	857.2780151367188	527.8530273437501	-314.4140014648436	903.9019775390625	692.7890014648439	-318.584991455078	807.2449951171875	565.8859863281251	-429.5069885253905	776.8270263671875	208.2570037841798	-322.7770080566406	743.094970703125	299.4630126953126	-434.6000061035156	858.9359741210938	40.74399948120124	-335.9490051269531	811.198974609375	384.1210021972657	-324.3389892578124	836.5670166015625	890.3510131835939	-634.4130249023435	771.7239990234375	890.9849853515626	-661.273986816406	713.052978515625	74.98100280761722	-101.4899978637695	876.4099731445312	957.8930053710938	-114.013000488281	696.93798828125	1341.774047851562	-158.3280029296872	790.1400146484375	1523.556030273438	-194.0749969482418	677.1010131835938	1106.988037109375	-13.52700042724585	907.7940063476562	1622.114013671875	-196.6710052490231	736.2860107421875	860.739013671875	164.6770019531252	854.4719848632812	36.13800048828129	-159.3220062255859	653.6099853515625	35.12500000000003	-131.2599945068359	795.2860107421875	475.2349853515625	-93.3749999999999	792.718994140625	464.3739929199219	-212.9539947509764	715.5800170898438	85.00700378417973	-184.6450042724609	813.9349975585938	26.69700050354005	-65.97299957275391	802.1489868164062	67.38300323486331	-130.3390045166015	723.0869750976562	966.27099609375	-200.6529998779295	777.4420166015625	1394.319946289062	-98.81700134277312	872.0800170898438	553.8189697265625	-139.4190063476561	906.4920043945312	720.0239868164062	-120.1449966430662	804.9320068359375	588.9929809570312	-40.39699935913073	787.0659790039062	256.6610107421876	-143.2480010986328	737.4130249023438	297.885009765625	-34.9329986572265	846.8480224609375	39.47000122070315	-113.9720001220703	827.1229858398438	395.0509948730469	-144.470001220703	767.8569946289062	901.2459716796875	113.9560012817385	697.1279907226562	896.9550170898438	125.6119995117189	896.31298828125	1189.73095703125	-252.9029998779294	690.4979858398438	1148.64404296875	-270.2200012207029	
253	2.52	775.2369995117188	1443.948974609375	-281.6820068359372	878.6680297851562	1349.0830078125	-262.7120056152341	723.7589721679688	78.05899810791024	-362.2539978027344	898.3350219726562	944.9099731445314	-359.2099914550779	804.2319946289062	1535.89404296875	-353.5679931640622	726.552978515625	1099.568969726563	-554.9279785156248	924.7949829101562	1636.594970703125	-320.4989929199215	809.9249877929688	854.4719848632814	-681.1669921874998	862.8670043945312	36.3279991149903	-290.43701171875	672.1699829101562	39.39899826049812	-333.8349914550781	781.6209716796875	469.5679931640626	-382.7359924316405	777.6950073242188	458.2040100097657	-266.7239990234374	729.5570068359375	88.29799652099615	-282.0350036621094	833.7360229492188	27.47999954223641	-384.1709899902344	803.8729858398438	73.73899841308601	-329.302001953125	731.9630126953125	959.8309936523439	-302.4869995117185	810.9630126953125	1383.70703125	-435.0719909667966	857.2930297851562	527.8660278320314	-314.4429931640624	903.8989868164062	692.8020019531251	-318.6210021972655	807.2369995117188	565.8839721679689	-429.5339965820311	776.8369750976562	208.2680053710938	-322.7940063476562	743.0850219726562	299.4599914550782	-434.6170043945312	858.9349975585938	40.75000000000007	-335.9530029296875	811.2119750976562	384.1340026855469	-324.3649902343749	836.5869750976562	890.3229980468751	-634.3549804687498	771.7420043945312	890.9530029296876	-661.2269897460935	713.0560302734375	74.98600006103518	-101.4919967651367	876.3980102539062	957.89501953125	-114.0569992065428	696.905029296875	1341.802001953125	-158.3509979248044	790.1309814453125	1523.56005859375	-194.1340026855465	677.0900268554688	1107.02197265625	-13.56700038909888	907.7849731445312	1622.113037109375	-196.6920013427731	736.3040161132812	860.7890014648438	164.6470031738283	854.4749755859375	36.14500045776371	-159.3260040283203	653.6099853515625	35.12400054931643	-131.2649993896484	795.2830200195312	475.2439880371094	-93.40000152587881	792.718017578125	464.3680114746094	-212.9759979248046	715.5780029296875	85.00599670410161	-184.6499938964843	813.9310302734375	26.70100021362306	-65.97599792480469	802.1640014648438	67.39600372314456	-130.3450012207031	723.0640258789062	966.2689819335938	-200.6860046386716	777.4219970703125	1394.357055664062	-98.85700225830047	872.0850219726562	553.8359985351562	-139.4559936523436	906.47802734375	720.031982421875	-120.1979980468748	804.9219970703125	589.0050048828125	-40.43099975585925	787.0750122070312	256.6730041503907	-143.261001586914	737.406005859375	297.8930053710938	-34.95000076293939	846.8560180664062	39.47999954223636	-113.9759979248047	827.1329956054688	395.0610046386719	-144.490005493164	767.8809814453125	901.2999877929688	113.9100036621096	697.1530151367188	897.0189819335938	125.5879974365236	896.3189697265625	1189.761962890625	-252.940002441406	690.4719848632812	1148.642944335938	-270.2569885253904	
254	2.53	775.2069702148438	1443.963989257812	-281.7319946289059	878.6589965820312	1349.114013671875	-262.7569885253903	723.7620239257812	78.05999755859384	-362.2619934082031	898.3319702148438	944.9180297851564	-359.2489929199216	804.2570190429688	1535.911987304688	-353.618988037109	726.5549926757812	1099.56005859375	-554.9530029296873	924.8330078125	1636.60400390625	-320.514007568359	809.9450073242188	854.4340209960939	-681.1220092773435	862.8729858398438	36.33499908447272	-290.4429931640625	672.166015625	39.40299987792976	-333.8370056152344	781.6119995117188	469.5669860839844	-382.7659912109374	777.6859741210938	458.2059936523438	-266.7489929199218	729.5560302734375	88.30300140380865	-282.0409851074219	833.7379760742188	27.48399925231942	-384.1749877929688	803.8829956054688	73.74800109863288	-329.3059997558594	731.9569702148438	959.8339843750001	-302.5100097656248	810.9530029296875	1383.713989257812	-435.1189880371091	857.302978515625	527.8759765625001	-314.470001220703	903.89501953125	692.8140258789064	-318.6539916992186	807.22802734375	565.8809814453126	-429.5620117187499	776.843994140625	208.2769927978516	-322.8089904785156	743.0750122070312	299.4590148925782	-434.6310119628906	858.9320068359375	40.75500106811531	-335.9540100097656	811.218994140625	384.1449890136719	-324.3880004882811	836.5980224609375	890.2919921875001	-634.3070068359373	771.760986328125	890.9290161132814	-661.200012207031	713.0540161132812	74.98999786376956	-101.4899978637695	876.3839721679688	957.89599609375	-114.0970001220701	696.864013671875	1341.828002929688	-158.3800048828122	790.1110229492188	1523.569946289062	-194.1959991455075	677.072021484375	1107.06494140625	-13.60900020599341	907.7769775390625	1622.113037109375	-196.7140045166012	736.3150024414062	860.8389892578125	164.6130065917971	854.4730224609375	36.15100097656254	-159.3289947509766	653.6060180664062	35.12300109863284	-131.2720031738281	795.280029296875	475.2520141601562	-93.42900085449209	792.7069702148438	464.3619995117188	-212.9969940185546	715.5770263671875	85.00499725341801	-184.656005859375	813.927978515625	26.70499992370607	-65.98300170898438	802.177978515625	67.411003112793	-130.3529968261718	723.031005859375	966.2769775390625	-200.720993041992	777.3909912109375	1394.39599609375	-98.90100097656219	872.0919799804688	553.8510131835938	-139.4960021972655	906.4609985351562	720.0399780273438	-120.2509994506834	804.9019775390625	589.0159912109375	-40.46500015258776	787.0800170898438	256.6830139160157	-143.2749938964843	737.3939819335938	297.8999938964844	-34.96799850463861	846.8610229492188	39.48899841308597	-113.9830017089844	827.1370239257812	395.0710144042969	-144.5099945068359	767.8980102539062	901.3560180664062	113.8619995117189	697.176025390625	897.0880126953125	125.56600189209	896.3270263671875	1189.797973632812	-252.9739990234372	690.4329833984375	1148.64404296875	-270.2879943847654	
